<svg width="16" height="16" viewBox="0 0 16 16" fill="none" xmlns="http://www.w3.org/2000/svg">
<path d="M8.01066 12.3044C7.6457 12.927 7.109 13.4637 6.42202 13.8716C5.75651 14.258 5.02659 14.4512 4.29668 14.4512C3.93172 13.8286 3.71704 13.0773 3.71704 12.3044C3.71704 11.5316 3.91025 10.7802 4.27521 10.1576H4.29668C5.75651 10.1576 7.15193 9.40622 7.96772 8.0752C7.19487 9.44915 7.28074 11.0378 8.01066 12.3044Z" fill="#212121"/>
<path d="M8.01071 8.01074C8.01071 8.01074 7.98924 8.05368 7.96777 8.07515C7.96777 8.05368 7.98924 8.03221 7.98924 8.01074H8.01071Z" fill="#212121"/>
<path d="M8.05368 8.07515C8.05368 8.07515 8.03221 8.03221 8.01074 8.01074H8.03221C8.03221 8.01074 8.05368 8.05368 8.05368 8.07515Z" fill="#212121"/>
<path d="M12.3044 12.3044C12.3044 13.0773 12.0897 13.8286 11.7247 14.4512C10.9948 14.4512 10.2649 14.258 9.57791 13.8716C8.9124 13.4852 8.3757 12.927 8.01074 12.3044C8.71919 11.0378 8.80506 9.44915 8.05368 8.0752C8.848 9.40622 10.2649 10.1576 11.7247 10.1576C12.1111 10.7802 12.3044 11.5101 12.3044 12.3044Z" fill="#212121"/>
<path d="M7.96777 8.07521C7.19492 9.44917 7.28079 11.0378 8.0107 12.3044C7.64574 12.927 7.10904 13.4637 6.42206 13.8716C5.75655 14.258 5.02664 14.4512 4.29672 14.4512C3.93177 13.8287 3.71709 13.0773 3.71709 12.3044C3.71709 11.5316 3.9103 10.7802 4.27526 10.1576C3.54534 10.1576 2.81543 9.9644 2.12845 9.57797C1.46294 9.19155 0.926237 8.63338 0.561279 8.01081C0.926237 7.36676 1.44147 6.80859 2.12845 6.42217C2.81543 6.03574 3.54534 5.84253 4.27526 5.84253C5.00517 7.13061 6.4006 8.01081 7.98923 8.01081C6.4006 8.01081 5.02664 8.86953 4.29672 10.1576C5.75655 10.1576 7.15198 9.40623 7.96777 8.07521Z" fill="#212121"/>
<path d="M7.96777 8.07515C7.96777 8.07515 7.98924 8.03221 7.98924 8.01074H8.01071C8.01071 8.01074 7.98924 8.05368 7.96777 8.07515Z" fill="#212121"/>
<path d="M8.05368 8.07515C8.05368 8.07515 8.03221 8.03221 8.01074 8.01074H8.03221C8.03221 8.01074 8.05368 8.05368 8.05368 8.07515Z" fill="#212121"/>
<path d="M7.98923 8.01081C6.4006 8.01081 5.02664 8.86953 4.29672 10.1576H4.27526C3.54534 10.1576 2.81543 9.9644 2.12845 9.57797C1.46294 9.19155 0.926237 8.63338 0.561279 8.01081C0.926237 7.36676 1.44147 6.80859 2.12845 6.42217C2.81543 6.03574 3.54534 5.84253 4.27526 5.84253C5.00517 7.13061 6.4006 8.01081 7.98923 8.01081Z" fill="#212121"/>
<path d="M8.01071 8.01074C8.01071 8.01074 7.98924 8.05368 7.96777 8.07515C7.96777 8.05368 7.98924 8.03221 7.98924 8.01074H8.01071Z" fill="#212121"/>
<path d="M4.27521 5.84244C3.91025 5.21987 3.71704 4.48995 3.71704 3.7171C3.71704 2.94425 3.93172 2.1714 4.29668 1.54883C5.02659 1.54883 5.75651 1.74204 6.42202 2.12847C7.109 2.53636 7.6457 3.07306 8.01066 3.69564C7.28074 4.96225 7.19487 6.55089 7.96772 7.92485C7.15193 6.59383 5.73504 5.84244 4.27521 5.84244Z" fill="#212121"/>
<path d="M8.01066 3.69564C7.28074 4.96225 7.19487 6.55089 7.96772 7.92485C7.15193 6.59383 5.73504 5.84244 4.27521 5.84244C3.91025 5.21987 3.71704 4.48995 3.71704 3.7171C3.71704 2.94425 3.93172 2.1714 4.29668 1.54883C5.02659 1.54883 5.75651 1.74204 6.42202 2.12847C7.109 2.53636 7.6457 3.07306 8.01066 3.69564Z" fill="#212121"/>
<path d="M12.3044 3.7171C12.3044 4.48995 12.1111 5.21987 11.7462 5.84244H11.7247C10.2649 5.84244 8.848 6.59383 8.05368 7.92485C8.80506 6.55089 8.71919 4.96225 8.01074 3.69564C8.3757 3.07306 8.9124 2.51489 9.57791 2.12847C10.2434 1.74204 10.9948 1.54883 11.7247 1.54883C12.0897 2.1714 12.3044 2.92279 12.3044 3.7171Z" fill="#212121"/>
<path d="M8.01074 8.01074H8.03221C8.03221 8.01074 8.05368 8.05368 8.05368 8.07515C8.03221 8.05368 8.03221 8.03221 8.01074 8.01074Z" fill="#212121"/>
<path d="M15.4387 7.98925C15.0737 8.61183 14.5585 9.17 13.8715 9.57789C13.1845 9.96431 12.4546 10.1575 11.7247 10.1575C10.9948 8.86944 9.62085 8.01072 8.03221 8.01072C9.62085 8.01072 10.9948 7.13053 11.7247 5.84244C10.2649 5.84244 8.848 6.59383 8.05368 7.92485C8.80506 6.55089 8.71919 4.96225 8.01074 3.69564C8.3757 3.07306 8.9124 2.51489 9.57791 2.12847C10.2434 1.74204 10.9948 1.54883 11.7247 1.54883C12.0897 2.1714 12.3044 2.92279 12.3044 3.7171C12.3044 4.51142 12.1111 5.21987 11.7462 5.84244C12.4761 5.84244 13.1845 6.03566 13.8715 6.42208C14.537 6.80851 15.0737 7.36668 15.4387 7.98925Z" fill="#212121"/>
<path d="M7.98924 8.01074H8.01071C8.01071 8.01074 7.98924 8.05368 7.96777 8.07515C7.96777 8.05368 7.98924 8.03221 7.98924 8.01074Z" fill="#212121"/>
<path d="M11.7247 10.1576C12.1111 10.7802 12.3044 11.5101 12.3044 12.3044C12.3044 13.0987 12.0897 13.8286 11.7247 14.4512C10.9948 14.4512 10.2649 14.258 9.57791 13.8716C8.9124 13.4852 8.3757 12.927 8.01074 12.3044C8.71919 11.0378 8.80506 9.44915 8.05368 8.0752C8.848 9.40622 10.2649 10.1576 11.7247 10.1576Z" fill="#212121"/>
<path d="M8.01074 8.01074H8.03221C8.03221 8.01074 8.05368 8.05368 8.05368 8.07515C8.03221 8.05368 8.03221 8.03221 8.01074 8.01074Z" fill="#212121"/>
<path d="M15.4387 7.98934C15.0738 8.61191 14.5585 9.17008 13.8715 9.57797C13.1846 9.9644 12.4546 10.1576 11.7247 10.1576C10.9948 8.86953 9.62086 8.01081 8.03223 8.01081C9.62086 8.01081 10.9948 7.13061 11.7247 5.84253H11.7462C12.4761 5.84253 13.1846 6.03574 13.8715 6.42217C14.5371 6.80859 15.0738 7.36676 15.4387 7.98934Z" fill="#212121"/>
<path d="M7.98984 8.52607C8.2744 8.52607 8.50508 8.2954 8.50508 8.01084C8.50508 7.72628 8.2744 7.49561 7.98984 7.49561C7.70529 7.49561 7.47461 7.72628 7.47461 8.01084C7.47461 8.2954 7.70529 8.52607 7.98984 8.52607Z" fill="#212121"/>
</svg>
