<?xml version="1.0" encoding="UTF-8"?><svg id="Layer_1" xmlns="http://www.w3.org/2000/svg" viewBox="0 0 1024 1024"><defs><style>.cls-1{fill:#fcfcfc;}</style></defs><path class="cls-1" d="M512.57,742.92c-19.58,33.4-48.37,62.19-85.23,84.08-35.7,20.73-74.86,31.09-114.02,31.09-19.58-33.4-31.1-73.71-31.1-115.17s10.37-81.77,29.94-115.17h1.15c78.32,0,153.18-40.31,196.94-111.71-41.46,73.71-36.85,158.93,2.3,226.88Z"/><path class="cls-1" d="M512.58,512.58s-1.15,2.3-2.3,3.46c0-1.15,1.15-2.3,1.15-3.46h1.15Z"/><path class="cls-1" d="M514.88,516.03s-1.15-2.3-2.3-3.46h1.15s1.15,2.3,1.15,3.46Z"/><path class="cls-1" d="M742.92,742.92c0,41.46-11.52,81.77-31.1,115.17-39.16,0-78.31-10.36-115.17-31.09-35.7-20.73-64.5-50.67-84.07-84.08,38.01-67.95,42.61-153.18,2.3-226.88,42.61,71.41,118.63,111.71,196.94,111.71,20.73,33.4,31.1,72.56,31.1,115.17Z"/><path class="cls-1" d="M510.27,516.03c-41.46,73.71-36.85,158.93,2.3,226.88-19.58,33.4-48.37,62.19-85.23,84.08-35.7,20.73-74.86,31.09-114.02,31.09-19.58-33.4-31.1-73.71-31.1-115.17s10.37-81.77,29.94-115.17c-39.16,0-78.32-10.36-115.17-31.1-35.7-20.73-64.5-50.67-84.07-84.07,19.58-34.55,47.22-64.5,84.07-85.23,36.85-20.73,76.01-31.1,115.17-31.1,39.16,69.1,114.02,116.32,199.24,116.32-85.23,0-158.93,46.07-198.09,115.17,78.32,0,153.18-40.31,196.94-111.71Z"/><path class="cls-1" d="M510.27,516.03s1.15-2.3,1.15-3.46h1.15s-1.15,2.3-2.3,3.46Z"/><path class="cls-1" d="M514.88,516.03s-1.15-2.3-2.3-3.46h1.15s1.15,2.3,1.15,3.46Z"/><path class="cls-1" d="M511.42,512.58c-85.23,0-158.93,46.07-198.09,115.17h-1.15c-39.16,0-78.32-10.36-115.17-31.1-35.7-20.73-64.5-50.67-84.07-84.07,19.58-34.55,47.22-64.5,84.07-85.23,36.85-20.73,76.01-31.1,115.17-31.1,39.16,69.1,114.02,116.32,199.24,116.32Z"/><path class="cls-1" d="M512.58,512.58s-1.15,2.3-2.3,3.46c0-1.15,1.15-2.3,1.15-3.46h1.15Z"/><path class="cls-1" d="M312.18,396.25c-19.58-33.4-29.94-72.56-29.94-114.02s11.52-82.92,31.1-116.32c39.16,0,78.32,10.37,114.02,31.1,36.85,21.88,65.65,50.67,85.23,84.07-39.16,67.95-43.76,153.18-2.3,226.88-43.76-71.41-119.78-111.72-198.09-111.72Z"/><path class="cls-1" d="M512.57,281.08c-39.16,67.95-43.76,153.18-2.3,226.88-43.76-71.41-119.78-111.72-198.09-111.72-19.58-33.4-29.94-72.56-29.94-114.02s11.52-82.92,31.1-116.32c39.16,0,78.32,10.37,114.02,31.1,36.85,21.88,65.65,50.67,85.23,84.07Z"/><path class="cls-1" d="M742.92,282.23c0,41.46-10.37,80.62-29.95,114.02h-1.15c-78.31,0-154.33,40.31-196.94,111.72,40.31-73.71,35.7-158.93-2.3-226.88,19.58-33.4,48.37-63.34,84.07-84.07,35.7-20.73,76.01-31.1,115.17-31.1,19.58,33.4,31.1,73.71,31.1,116.32Z"/><path class="cls-1" d="M512.58,512.58h1.15s1.15,2.3,1.15,3.46c-1.15-1.15-1.15-2.3-2.3-3.46Z"/><path class="cls-1" d="M911.06,511.42c-19.58,33.4-47.22,63.34-84.08,85.23-36.86,20.73-76.01,31.09-115.17,31.09-39.16-69.1-112.87-115.17-198.09-115.17,85.23,0,158.93-47.22,198.09-116.32-78.31,0-154.33,40.31-196.94,111.72,40.31-73.71,35.7-158.93-2.3-226.88,19.58-33.4,48.37-63.34,84.07-84.07,35.7-20.73,76.01-31.1,115.17-31.1,19.58,33.4,31.1,73.71,31.1,116.32s-10.37,80.62-29.95,114.02c39.16,0,77.16,10.37,114.02,31.1,35.7,20.73,64.49,50.67,84.08,84.07Z"/><path class="cls-1" d="M511.42,512.58h1.15s-1.15,2.3-2.3,3.46c0-1.15,1.15-2.3,1.15-3.46Z"/><path class="cls-1" d="M711.82,627.75c20.73,33.4,31.1,72.56,31.1,115.17s-11.52,81.77-31.1,115.17c-39.16,0-78.31-10.36-115.17-31.09-35.7-20.73-64.5-50.67-84.07-84.08,38.01-67.95,42.61-153.18,2.3-226.88,42.61,71.41,118.63,111.71,196.94,111.71Z"/><path class="cls-1" d="M512.58,512.58h1.15s1.15,2.3,1.15,3.46c-1.15-1.15-1.15-2.3-2.3-3.46Z"/><path class="cls-1" d="M911.06,511.43c-19.58,33.4-47.22,63.34-84.08,85.23-36.85,20.73-76.01,31.1-115.17,31.1-39.16-69.1-112.86-115.17-198.09-115.17,85.23,0,158.93-47.22,198.09-116.32h1.15c39.16,0,77.17,10.37,114.02,31.1,35.71,20.73,64.5,50.67,84.08,84.07Z"/><path class="cls-1" d="M511.46,540.22c15.27,0,27.64-12.37,27.64-27.64s-12.38-27.64-27.64-27.64-27.64,12.37-27.64,27.64,12.38,27.64,27.64,27.64Z"/></svg>